<svg width="24" height="24" viewBox="0 0 24 24" fill="none" xmlns="http://www.w3.org/2000/svg">
<path d="M23.2368 1H1.23682V23H23.2368V1Z" stroke="#878787" stroke-miterlimit="10"/>
<path d="M4.94263 9.20898V14.7442H6.4437V9.20898H4.94263Z" fill="#878787"/>
<path d="M9.72744 9.20898L9.35218 11.742L9.16453 10.3348C9.07072 9.86571 9.07073 9.49043 8.97692 9.20898H7.10059V14.6503H8.41401V11.0853L8.97692 14.6503H9.91508L10.3842 10.9915V14.6503H11.6976V9.20898H9.72744Z" fill="#878787"/>
<path d="M12.2603 14.7441V9.3028H14.6057C15.1686 9.3028 15.5438 9.77188 15.5438 10.241V13.806C15.5438 14.3689 15.0747 14.7441 14.6057 14.7441H12.2603ZM13.9489 10.241C13.8551 10.241 13.7613 10.1471 13.5737 10.1471V13.7122C13.7613 13.7122 13.9489 13.7122 13.9489 13.6184C14.0428 13.5245 14.0428 13.3369 14.0428 12.9616V10.8039C14.0428 10.5224 14.0428 10.4286 14.0428 10.3348C14.0428 10.3348 14.0428 10.241 13.9489 10.241Z" fill="#878787"/>
<path d="M18.4523 10.6162H18.5461C19.109 10.6162 19.5781 11.0853 19.5781 11.5544V13.7122C19.5781 14.2751 19.109 14.6503 18.5461 14.6503H18.4523C18.077 14.6503 17.7956 14.4627 17.6079 14.2751L17.5141 14.6503H16.2007V9.3028H17.6079V11.0853C17.7956 10.8039 18.077 10.6162 18.4523 10.6162ZM18.077 13.2431V11.9296C18.077 11.742 18.077 11.5544 18.077 11.5544C18.077 11.4606 17.8894 11.4606 17.8894 11.4606C17.7956 11.4606 17.7018 11.4606 17.7018 11.5544V13.7122C17.7018 13.806 17.8894 13.806 17.8894 13.806C17.8894 13.806 18.077 13.806 18.077 13.7122C18.077 13.7122 18.077 13.5245 18.077 13.2431Z" fill="#878787"/>
</svg>
