<svg width="24" height="24" viewBox="0 0 24 24" fill="none" xmlns="http://www.w3.org/2000/svg">
<path d="M18.0554 4.7995C17.3517 4.7995 16.7419 5.36242 16.7419 6.11295C16.7419 6.76967 17.2579 7.42638 18.0554 7.42638C18.8059 7.42638 19.3688 6.81658 19.3688 6.11295C19.3688 5.36242 18.759 4.7995 18.0554 4.7995Z" fill="#878787"/>
<path d="M23.1684 1H1.16846V23H23.1684V1Z" stroke="#878787" stroke-miterlimit="10"/>
<path d="M12.1451 16.5266C14.658 16.5266 16.6952 14.4895 16.6952 11.9766C16.6952 9.46361 14.658 7.42645 12.1451 7.42645C9.63213 7.42645 7.59497 9.46361 7.59497 11.9766C7.59497 14.4895 9.63213 16.5266 12.1451 16.5266Z" stroke="#878787" stroke-miterlimit="10"/>
</svg>
