<svg width="24" height="24" viewBox="0 0 24 24" fill="none" xmlns="http://www.w3.org/2000/svg">
<path d="M23.2578 1H1.25781V23H23.2578V1Z" stroke="#878787" stroke-miterlimit="10"/>
<path d="M17.9573 17.6524C17.9104 17.6524 17.9104 17.6524 17.8635 17.6524C17.1599 17.6524 16.4094 17.6524 15.7057 17.6524C15.6119 17.6524 15.6119 17.6524 15.6119 17.5586C15.6119 16.1983 15.6119 14.8379 15.6119 13.4776C15.6119 13.1492 15.565 12.8678 15.4243 12.5863C15.2835 12.2111 14.9552 12.0234 14.5799 11.9765C14.3454 11.9296 14.1108 11.9765 13.8763 12.0234C13.501 12.1172 13.2665 12.3987 13.1258 12.774C13.032 13.0085 12.9851 13.2899 12.9851 13.5714C12.9851 14.8848 12.9851 16.2452 12.9851 17.5586C12.9851 17.6524 12.9851 17.6524 12.8912 17.6524C12.1876 17.6524 11.4371 17.6524 10.7334 17.6524C10.6396 17.6524 10.6396 17.6524 10.6396 17.5586C10.6396 15.0725 10.6396 12.6332 10.6396 10.1471C10.6396 10.0533 10.6396 10.0533 10.7334 10.0533C11.4371 10.0533 12.0938 10.0533 12.7974 10.0533C12.8912 10.0533 12.8912 10.0533 12.8912 10.1471C12.8912 10.4285 12.8912 10.71 12.8912 10.9914C12.8912 11.0384 12.8912 11.0384 12.8912 11.0853C12.8912 11.0384 12.9381 11.0384 12.9381 10.9914C13.2665 10.4755 13.7356 10.1471 14.3454 9.95946C14.5799 9.91255 14.8145 9.86566 15.049 9.86566C15.5181 9.86566 15.9403 9.91255 16.3624 10.0533C16.8315 10.2409 17.2068 10.5224 17.4882 10.9914C17.6759 11.3667 17.8166 11.742 17.8635 12.1173C17.9104 12.3518 17.9573 12.6332 17.9573 12.8678C17.9573 13.9467 17.9573 15.0255 17.9573 16.0575C17.9573 16.5266 17.9573 17.0426 17.9573 17.5117C17.9573 17.6055 17.9573 17.6055 17.9573 17.6524Z" fill="#878787"/>
<path d="M6.74634 17.6525C6.74634 17.6056 6.74634 17.5587 6.74634 17.5587C6.74634 15.1194 6.74634 12.6333 6.74634 10.1941C6.74634 10.1003 6.74634 10.1003 6.84016 10.1003C7.54378 10.1003 8.24743 10.1003 8.99796 10.1003C9.09177 10.1003 9.09175 10.1003 9.09175 10.1941C9.09175 12.6802 9.09175 15.1195 9.09175 17.6056C9.09175 17.6994 9.09177 17.6994 8.99796 17.6994C8.29433 17.6994 7.54378 17.6994 6.84016 17.6994C6.84016 17.6525 6.79325 17.6525 6.74634 17.6525Z" fill="#878787"/>
<path d="M6.55859 7.66101C6.55859 6.91048 7.16838 6.30066 7.91892 6.30066C8.66945 6.30066 9.32618 6.91048 9.27927 7.66101C9.27927 8.45845 8.66945 9.02133 7.91892 9.02133C7.16838 9.06824 6.55859 8.41154 6.55859 7.66101Z" fill="#878787"/>
</svg>
