<svg width="109" height="43" viewBox="0 0 109 43" fill="none" xmlns="http://www.w3.org/2000/svg">
<path d="M104.542 22.7595L104.532 27.5667L108.99 26.9384L109 22.1312L104.542 22.7595Z" fill="#121212"/>
<path d="M78.4213 17.6729C79.6182 15.6683 81.3236 14.5114 83.5278 14.2022C85.7319 13.893 87.4174 14.5712 88.5743 16.2467C89.6615 17.8126 90.2399 19.8671 90.2997 22.3904L91.0877 22.2807L93.9401 21.8817L93.98 1.02722L90.1701 1.56579L90.1402 15.7481L90.0504 15.758C89.4021 14.0625 88.4247 12.8059 87.0983 11.9581C85.7718 11.1204 84.206 10.8311 82.3908 11.0805C80.7651 11.3099 79.3389 11.8684 78.0922 12.756C76.8555 13.6337 75.8183 14.7208 74.9905 16.0074C74.1627 17.3039 73.5343 18.76 73.1254 20.3857C72.7464 21.8618 72.537 23.3478 72.5071 24.8738L76.6361 24.2953C76.6959 21.772 77.2943 19.548 78.4213 17.6729Z" fill="#121212"/>
<path d="M54.7444 25.3825C54.7444 23.3379 55.1733 21.6823 56.021 20.4157C56.8588 19.159 58.2052 18.401 60.0403 18.1417C61.9054 17.8824 63.2617 18.2714 64.0995 19.3086C64.9373 20.3459 65.3562 21.7422 65.3562 23.4975V25.9011L69.166 25.3625L69.186 13.4343L65.5157 13.9529L65.5058 19.3086L65.406 19.3286C64.8276 17.7229 63.9499 16.536 62.773 15.7581C61.5962 14.9802 60.16 14.7109 58.4845 14.9502C57.2577 15.1198 56.1706 15.4988 55.2231 16.0772C54.2657 16.6557 53.4778 17.3738 52.8494 18.2215C52.2211 19.0693 51.7424 20.0367 51.4232 21.1238C51.1041 22.2109 50.9345 23.3379 50.9345 24.4849L50.9246 27.9357L54.7344 27.3971L54.7444 25.3825Z" fill="#121212"/>
<path d="M33.1817 28.0155C33.1817 26.2701 33.6106 24.7541 34.4483 23.4775C35.2861 22.2109 36.6425 21.433 38.5175 21.1737C40.3526 20.9144 41.6891 21.2934 42.5268 22.3206C43.3646 23.3379 43.7935 24.8838 43.7835 26.9284V28.933L47.5934 28.3945L47.6033 24.9436C47.6033 23.7867 47.4438 22.7096 47.1346 21.7122C46.8154 20.7149 46.3367 19.8871 45.7084 19.2089C45.08 18.5407 44.3021 18.042 43.3447 17.7328C42.3972 17.4236 41.3101 17.3538 40.0933 17.5234C38.4078 17.7627 36.9716 18.431 35.7947 19.538C34.6079 20.6451 33.7302 22.0813 33.1418 23.8466L33.052 23.8565L33.082 9.57452L29.4117 10.0931L29.3718 30.9477L33.1817 30.4091V28.0155Z" fill="#121212"/>
<path d="M26.0507 19.9968L21.5926 20.6252L21.5726 32.0547L26.0308 31.4264L26.0507 19.9968Z" fill="#121212"/>
<path d="M26.0707 10.5818L21.6125 11.2002L21.6025 16.0174L26.0607 15.3891L26.0707 10.5818Z" fill="#121212"/>
<path d="M97.2713 20.3559C97.2713 21.9716 96.992 23.1983 96.4335 24.0161C95.8849 24.8339 94.8278 25.3625 93.2619 25.582L91.7559 25.7914L91.0877 25.8812L90.0106 26.0308L88.8537 26.1903L76.9254 27.8659L69.5749 28.9031L0.00997408 38.6771V39.5149L0 42.2476L70.5025 32.334L78.3017 31.2369L88.8437 29.7509L90.0106 29.5813L91.0777 29.4317L91.746 29.342L93.8105 29.0527C96.3836 28.6937 98.2586 27.8659 99.4455 26.5793C100.632 25.2927 101.221 23.2083 101.221 20.3359L101.261 0L97.3112 0.558512L97.2713 20.3559Z" fill="#121212"/>
<path d="M3.83982 25.6617V23.2182C3.83982 21.4729 4.26868 19.9569 5.10645 18.6803C5.9542 17.4137 7.31059 16.6358 9.17563 16.3764C11.0107 16.1171 12.3472 16.4961 13.1949 17.5234C14.0327 18.5407 14.4516 20.0866 14.4516 22.1311V24.1757L14.4316 33.0621L18.2415 32.5235L18.2615 23.6371L18.2714 20.1564C18.2714 18.9995 18.1119 17.9223 17.7927 16.925C17.4736 15.9276 16.9948 15.0998 16.3765 14.4216C15.7481 13.7534 14.9602 13.2547 14.0128 12.9456C13.0653 12.6364 11.9782 12.5666 10.7514 12.7361C9.06592 12.9755 7.62974 13.6437 6.45287 14.7508C5.276 15.8578 4.38836 17.294 3.79993 19.0593L3.71017 19.0693L3.72014 13.7135L0.049903 14.2322L0.0299564 26.1903L0.0100098 35.0767L3.81987 34.5381L3.83982 25.6617Z" fill="#121212"/>
</svg>
