<svg width="307" height="119" viewBox="0 0 307 119" fill="none" xmlns="http://www.w3.org/2000/svg">
<path d="M293.677 63.9356L293.649 77.4399L306.173 75.6748L306.201 62.1705L293.677 63.9356Z" fill="#121212"/>
<path d="M220.301 49.6467C223.663 44.0152 228.454 40.7652 234.646 39.8966C240.838 39.0281 245.573 40.9333 248.823 45.6402C251.877 50.0389 253.502 55.8105 253.67 62.8989L255.883 62.5907L263.896 61.47L264.008 2.88574L253.306 4.39869L253.222 44.2393L252.97 44.2673C251.148 39.5044 248.403 35.9742 244.676 33.5927C240.95 31.2393 236.551 30.4268 231.452 31.1272C226.885 31.7716 222.879 33.3406 219.377 35.8341C215.903 38.2996 212.989 41.3535 210.663 44.9678C208.338 48.61 206.573 52.7006 205.424 57.2674C204.359 61.414 203.771 65.5885 203.687 69.8752L215.286 68.2502C215.454 61.1618 217.135 54.9139 220.301 49.6467Z" fill="#121212"/>
<path d="M153.786 71.3041C153.786 65.5606 154.991 60.9097 157.373 57.3515C159.726 53.8213 163.508 51.692 168.664 50.9635C173.903 50.2351 177.713 51.3278 180.067 54.2416C182.42 57.1554 183.597 61.0778 183.597 66.0089V72.7611L194.299 71.2481L194.355 37.7394L184.045 39.1963L184.017 54.2416L183.737 54.2976C182.112 49.7868 179.646 46.4528 176.34 44.2674C173.034 42.0821 169 41.3256 164.293 41.998C160.847 42.4743 157.793 43.539 155.131 45.164C152.441 46.789 150.228 48.8062 148.463 51.1877C146.698 53.5692 145.353 56.2868 144.457 59.3407C143.56 62.3946 143.084 65.5606 143.084 68.7826L143.056 78.4766L153.758 76.9636L153.786 71.3041Z" fill="#121212"/>
<path d="M93.2138 78.7007C93.2138 73.7976 94.4186 69.539 96.7721 65.9528C99.1255 62.3946 102.936 60.2092 108.203 59.4808C113.358 58.7523 117.113 59.817 119.466 62.7028C121.82 65.5605 123.024 69.9032 122.996 75.6468V81.2783L133.699 79.7653L133.727 70.0713C133.727 66.8213 133.279 63.7954 132.41 60.9937C131.514 58.192 130.169 55.8665 128.404 53.9613C126.639 52.0842 124.453 50.6833 121.764 49.8148C119.102 48.9462 116.048 48.7501 112.63 49.2264C107.895 49.8988 103.86 51.776 100.554 54.8859C97.2203 57.9958 94.7548 62.0303 93.1018 66.9894L92.8496 67.0174L92.9337 26.8966L82.6233 28.3535L82.5112 86.9378L93.2138 85.4248V78.7007Z" fill="#121212"/>
<path d="M73.1823 56.1749L60.6586 57.94L60.6025 90.0478L73.1263 88.2827L73.1823 56.1749Z" fill="#121212"/>
<path d="M73.2373 29.7264L60.7136 31.4635L60.6855 44.9958L73.2093 43.2307L73.2373 29.7264Z" fill="#121212"/>
<path d="M273.253 57.1834C273.253 61.7222 272.469 65.1683 270.9 67.4657C269.359 69.7632 266.389 71.2481 261.99 71.8645L257.759 72.4528L255.882 72.705L252.856 73.1252L249.606 73.5735L216.098 78.2804L195.449 81.1942L0.028019 108.651V111.005L0 118.681L198.055 90.8322L219.964 87.7503L249.578 83.5757L252.856 83.0994L255.854 82.6792L257.732 82.427L263.531 81.6145C270.76 80.6059 276.027 78.2804 279.361 74.6662C282.695 71.052 284.348 65.1963 284.348 57.1273L284.46 0L273.365 1.56896L273.253 57.1834Z" fill="#121212"/>
<path d="M10.786 72.0886V65.2243C10.786 60.3213 11.9907 56.0627 14.3442 52.4764C16.7257 48.9182 20.536 46.7329 25.7753 46.0044C30.9305 45.276 34.6848 46.3407 37.0663 49.2264C39.4197 52.0842 40.5964 56.4269 40.5964 62.1704V67.914L40.5404 92.8774L51.243 91.3645L51.2991 66.4011L51.3271 56.623C51.3271 53.373 50.8788 50.3471 49.9822 47.5454C49.0857 44.7437 47.7409 42.4182 46.0038 40.513C44.2387 38.6359 42.0253 37.235 39.3637 36.3665C36.702 35.4979 33.6481 35.3018 30.202 35.7781C25.4671 36.4505 21.4326 38.3277 18.1265 41.4376C14.8205 44.5475 12.327 48.582 10.6739 53.5411L10.4218 53.5691L10.4498 38.5238L0.139411 39.9807L0.0833776 73.5735L0.0273438 98.5369L10.73 97.024L10.786 72.0886Z" fill="#121212"/>
</svg>
