<?xml version="1.0" encoding="utf-8"?>
<!-- Generator: Adobe Illustrator 22.0.1, SVG Export Plug-In . SVG Version: 6.00 Build 0)  -->
<svg version="1.1" id="Layer_1" xmlns="http://www.w3.org/2000/svg" xmlns:xlink="http://www.w3.org/1999/xlink" x="0px" y="0px"
	 viewBox="0 0 1417.3 1417.3" style="enable-background:new 0 0 1417.3 1417.3;" xml:space="preserve">
<g>
	<polygon points="1210.4,725.4 1210.3,773.6 1255,767.3 1255.1,719.1 	"/>
	<path d="M948.5,674.4c12-20.1,29.1-31.7,51.2-34.8c22.1-3.1,39,3.7,50.6,20.5c10.9,15.7,16.7,36.3,17.3,61.6l7.9-1.1l28.6-4
		l0.4-209.1l-38.2,5.4l-0.3,142.2l-0.9,0.1c-6.5-17-16.3-29.6-29.6-38.1c-13.3-8.4-29-11.3-47.2-8.8c-16.3,2.3-30.6,7.9-43.1,16.8
		c-12.4,8.8-22.8,19.7-31.1,32.6c-8.3,13-14.6,27.6-18.7,43.9c-3.8,14.8-5.9,29.7-6.2,45l41.4-5.8
		C931.2,715.5,937.2,693.2,948.5,674.4z"/>
	<path d="M711.1,751.7c0-20.5,4.3-37.1,12.8-49.8c8.4-12.6,21.9-20.2,40.3-22.8c18.7-2.6,32.3,1.3,40.7,11.7
		c8.4,10.4,12.6,24.4,12.6,42l0,24.1l38.2-5.4l0.2-119.6l-36.8,5.2l-0.1,53.7L818,691c-5.8-16.1-14.6-28-26.4-35.8
		c-11.8-7.8-26.2-10.5-43-8.1c-12.3,1.7-23.2,5.5-32.7,11.3c-9.6,5.8-17.5,13-23.8,21.5c-6.3,8.5-11.1,18.2-14.3,29.1
		c-3.2,10.9-4.9,22.2-4.9,33.7l-0.1,34.6l38.2-5.4L711.1,751.7z"/>
	<path d="M494.9,778.1c0-17.5,4.3-32.7,12.7-45.5c8.4-12.7,22-20.5,40.8-23.1c18.4-2.6,31.8,1.2,40.2,11.5
		c8.4,10.2,12.7,25.7,12.6,46.2l0,20.1l38.2-5.4l0.1-34.6c0-11.6-1.6-22.4-4.7-32.4c-3.2-10-8-18.3-14.3-25.1
		c-6.3-6.7-14.1-11.7-23.7-14.8c-9.5-3.1-20.4-3.8-32.6-2.1c-16.9,2.4-31.3,9.1-43.1,20.2c-11.9,11.1-20.7,25.5-26.6,43.2l-0.9,0.1
		l0.3-143.2l-36.8,5.2l-0.4,209.1l38.2-5.4L494.9,778.1z"/>
	<polygon points="423.4,697.7 378.7,704 378.5,818.6 423.2,812.3 	"/>
	<polygon points="423.6,603.3 378.9,609.5 378.8,657.8 423.5,651.5 	"/>
	<path d="M1137.5,701.3c0,16.2-2.8,28.5-8.4,36.7c-5.5,8.2-16.1,13.5-31.8,15.7l-15.1,2.1l-6.7,0.9l-10.8,1.5l-11.6,1.6l-119.6,16.8
		l-73.7,10.4l-697.5,98l0,8.4l-0.1,27.4l706.9-99.4l78.2-11l105.7-14.9l11.7-1.7l10.7-1.5l6.7-0.9l20.7-2.9
		c25.8-3.6,44.6-11.9,56.5-24.8c11.9-12.9,17.8-33.8,17.8-62.6l0.4-203.9l-39.6,5.6L1137.5,701.3z"/>
	<path d="M200.7,754.5l0-24.5c0-17.5,4.3-32.7,12.7-45.5c8.5-12.7,22.1-20.5,40.8-23.1c18.4-2.6,31.8,1.2,40.3,11.5
		c8.4,10.2,12.6,25.7,12.6,46.2l0,20.5l-0.2,89.1l38.2-5.4l0.2-89.1l0.1-34.9c0-11.6-1.6-22.4-4.8-32.4c-3.2-10-8-18.3-14.2-25.1
		c-6.3-6.7-14.2-11.7-23.7-14.8c-9.5-3.1-20.4-3.8-32.7-2.1c-16.9,2.4-31.3,9.1-43.1,20.2c-11.8,11.1-20.7,25.5-26.6,43.2l-0.9,0.1
		l0.1-53.7l-36.8,5.2l-0.2,119.9l-0.2,89.1l38.2-5.4L200.7,754.5z"/>
</g>
</svg>
